<?xml version="1.0" encoding="UTF-8" standalone="no"?>
<svg width="84px" height="84px" viewBox="0 0 84 84" version="1.1" xmlns="http://www.w3.org/2000/svg" xmlns:xlink="http://www.w3.org/1999/xlink" xmlns:sketch="http://www.bohemiancoding.com/sketch/ns">
    <!-- Generator: Sketch 3.0.3 (7891) - http://www.bohemiancoding.com/sketch -->
    <title>syntropy-logo@1x</title>
    <desc>Created with Sketch.</desc>
    <defs></defs>
    <g id="Page-1" stroke="none" stroke-width="1" fill="none" fill-rule="evenodd" sketch:type="MSPage">
        <path d="M56.3054509,2.36146188 C56.3054509,2.36146188 45.3426174,-1.84591897 33.273156,1.07813876 C33.273156,1.07813876 22.0240427,2.91077215 15.8148978,11.5654073 C15.8148978,11.5654073 8.0733138,19.4812322 10.3322782,33.4418688 C10.3322782,33.4418688 11.7107516,45.8097454 23.3568076,47.2082078 C23.3568076,47.2082078 31.6180256,47.7863029 34.0165213,40.5085415 C34.0165213,40.5085415 36.5425198,32.8541787 28.6878673,28.9874182 C28.6878673,28.9874182 21.8796999,24.5761449 23.7778073,15.9982693 C23.7778073,15.9982693 25.6759148,8.8620332 35.4695718,4.90651951 C35.4695718,4.90651951 46.3818854,0.516834813 56.3054509,2.36146188" id="Us-2" fill="#6BB750" sketch:type="MSShapeGroup"></path>
        <path d="M81.0244318,57.3708352 C81.0244318,57.3708352 85.5327377,46.5525412 82.9177278,34.4485254 C82.9177278,34.4485254 81.3756659,23.1864654 72.8618481,16.7698498 C72.8618481,16.7698498 65.1274812,8.84443003 51.0733067,10.7298356 C51.0733067,10.7298356 38.6405826,11.7828802 36.9301208,23.3543769 C36.9301208,23.3543769 36.1362356,31.5724423 43.3702141,34.1558797 C43.3702141,34.1558797 50.9746725,36.876045 55.0595729,29.1449227 C55.0595729,29.1449227 59.6568902,22.4764399 68.2116051,24.5897253 C68.2116051,24.5897253 75.3108638,26.6694284 79.0228787,36.5330259 C79.0228787,36.5330259 83.1390534,47.5264275 81.0244318,57.3708352" id="Client-2" fill="#898B8A" sketch:type="MSShapeGroup"></path>
        <path d="M50.5290981,82.4995759 C50.5290981,82.4995759 61.7926457,80.743702 68.0619335,72.1346428 C68.0619335,72.1346428 75.8636603,64.2715901 73.7057358,50.2989599 C73.7057358,50.2989599 72.4114623,37.923887 60.7774349,36.4390702 C60.7774349,36.4390702 52.5186227,35.8058042 50.0647955,43.0643757 C50.0647955,43.0643757 47.4834656,50.6995486 55.3164667,54.6238787 C55.3164667,54.6238787 62.0885484,59.080728 60.1302982,67.64661 C60.1302982,67.64661 58.1840764,74.7660549 48.3591451,78.654404 C48.3591451,78.654404 37.417963,82.9625317 27.5088318,81.0507401 C27.5088318,81.0507401 38.440391,85.3372792 50.5290981,82.4995759 Z" id="Us-1" fill="#6BB750" sketch:type="MSShapeGroup"></path>
        <path d="M3.0465128,25.2309972 C3.0465128,25.2309972 -1.87798142,35.8669874 0.265508737,48.0645539 C0.265508737,48.0645539 1.37454237,59.3769872 9.62854319,66.117432 C9.62854319,66.117432 17.0477616,74.3378962 31.1644847,72.9946047 C31.1644847,72.9946047 43.6308887,72.4237058 45.7888132,60.9289686 C45.7888132,60.9289686 46.9026582,52.7468842 39.7769367,49.8827948 C39.7769367,49.8827948 32.2807355,46.8723827 27.8951209,54.440391 C27.8951209,54.440391 23.0452038,60.9265699 14.581906,58.4822591 C14.581906,58.4822591 7.56444155,56.1291003 4.23974638,46.1311736 C4.23974638,46.1311736 0.559005706,34.9890504 3.0465128,25.2309972" id="Client-1" fill="#898B8A" sketch:type="MSShapeGroup"></path>
    </g>
</svg>